<svg t="1642091227336" class="icon" viewBox="0 0 1025 1024" version="1.1" xmlns="http://www.w3.org/2000/svg" p-id="11226" width="64" height="64"><path d="M686.91092 1024a88.914144 88.914144 0 0 1-27.983131-4.513408L514.859796 972.998486a9.026817 9.026817 0 0 0-6.047967 0l-143.797189 46.488106a89.726557 89.726557 0 0 1-108.321799-45.134083L188.450107 839.943209a10.110035 10.110035 0 0 0-4.242604-4.242603l-134.680104-68.603807a90.268166 90.268166 0 0 1-45.134083-108.321799L51.332763 514.977811a9.929498 9.929498 0 0 0 0-6.047967L4.754389 365.40346a89.726557 89.726557 0 0 1 45.134083-108.321799l134.589836-68.784343a10.019766 10.019766 0 0 0 4.332872-4.332872l68.42327-134.319031a89.726557 89.726557 0 0 1 108.321799-45.134083l143.526384 46.939447a9.929498 9.929498 0 0 0 6.047967 0L659.288861 4.872405a90.268166 90.268166 0 0 1 108.3218 45.134083l68.784342 134.680104a10.110035 10.110035 0 0 0 4.242604 4.242603L975.227443 257.713538a89.636289 89.636289 0 0 1 45.134083 108.321799l-46.578374 143.797189a9.929498 9.929498 0 0 0 0 6.047967l45.585424 143.526384a89.726557 89.726557 0 0 1-45.134083 108.321799L839.825194 835.881142a9.658694 9.658694 0 0 0-4.242604 4.242604l-68.784343 134.589835a89.726557 89.726557 0 0 1-79.887327 49.286419z m-174.849437-126.375433a86.296367 86.296367 0 0 1 26.177768 4.152336L682.126707 948.265009a14.713711 14.713711 0 0 0 18.053634-7.40199l68.784342-134.589836a84.67154 84.67154 0 0 1 37.100217-37.100216l134.589835-68.694074a14.894247 14.894247 0 0 0 7.40199-18.053633L901.207547 538.357266a85.032612 85.032612 0 0 1 0-52.355536l46.939446-143.797189a14.803979 14.803979 0 0 0-7.40199-18.053633l-134.950908-68.603806a84.491003 84.491003 0 0 1-37.100216-37.009948L699.909536 83.85705a14.713711 14.713711 0 0 0-18.053633-7.311721l-143.616652 46.488105a83.768858 83.768858 0 0 1-52.355537 0L342.086526 76.545329a14.803979 14.803979 0 0 0-18.053633 7.311721l-68.603807 134.680104a84.761808 84.761808 0 0 1-37.009948 37.009948L83.739034 324.331445a14.894247 14.894247 0 0 0-7.401989 18.053633l46.578374 143.797188a84.039663 84.039663 0 0 1 0 52.445805L76.337045 682.244723a14.984516 14.984516 0 0 0 7.401989 18.053633l134.680104 68.694075a84.942344 84.942344 0 0 1 37.009948 37.100216l68.784343 134.589836a14.803979 14.803979 0 0 0 18.053633 7.401989l143.616652-46.75891a87.10878 87.10878 0 0 1 26.177769-4.152335z" p-id="11227" ></path><path d="M817.799761 708.9641l-70.770242 36.107267a6.770112 6.770112 0 0 0-2.97885 2.978849l-36.107266 70.770242a26.268036 26.268036 0 0 1-35.475389 11.464058A26.268036 26.268036 0 0 1 661.003957 794.809126l36.107266-70.770242a59.57699 59.57699 0 0 1 25.997232-25.906964l70.770242-36.107266a26.358304 26.358304 0 0 1 35.385121 11.464057 26.268036 26.268036 0 0 1-11.464057 35.475389zM334.323464 657.872318a256.542128 256.542128 0 0 0-44.32167 20.039533 187.216176 187.216176 0 0 1-26.177768 12.366739c-6.770112 2.166436-9.83923 0-11.915398-1.715095a9.83923 9.83923 0 0 1-2.527509-11.102985 45.134083 45.134083 0 0 1 11.82513-16.609342 38.093166 38.093166 0 0 1 19.768728-12.366739 27.983131 27.983131 0 0 1 19.046583 5.41609l5.686895 3.520458 30.420372-30.420371-7.131185-5.867431a62.646107 62.646107 0 0 0-49.376687-16.24827 84.491003 84.491003 0 0 0-45.856229 26.358304 84.310467 84.310467 0 0 0-25.184818 44.32167 47.842128 47.842128 0 0 0 13.720761 45.134083 45.134083 45.134083 0 0 0 45.134083 12.366739 223.95532 223.95532 0 0 0 38.90558-18.053634 274.324957 274.324957 0 0 1 29.51769-14.713711c10.471107-3.520458 14.894247-0.631877 17.421756 1.805364a10.83218 10.83218 0 0 1 2.256705 11.464057 52.265268 52.265268 0 0 1-14.081834 21.213019 45.134083 45.134083 0 0 1-22.025433 13.991566 31.413322 31.413322 0 0 1-22.567041-8.033867l-5.777163-4.332872-30.51064 30.51064 6.499308 5.957699a67.971929 67.971929 0 0 0 45.675692 19.67846 54.1609 54.1609 0 0 0 10.651643-0.99295 91.53192 91.53192 0 0 0 46.939447-27.983131 91.892993 91.892993 0 0 0 28.344204-48.835078 50.369637 50.369637 0 0 0-15.074784-45.134083 48.022664 48.022664 0 0 0-49.286418-11.734862zM351.474415 517.956661l80.2484 179.814187 33.489489-33.48949-18.866046-40.34987L487.779346 582.678936l40.440138 18.866047 33.399222-33.399222L381.623983 487.897362z m98.302033 47.029714l-21.122751 21.122751-18.775778-39.898529zM644.845955 427.869031l-63.909862 63.909862-101.641955-101.641955-31.052249 31.052249 130.076427 129.986159 94.962111-94.962111-28.434472-28.344204zM767.700929 305.014057l-68.694074 68.694074-23.921064-23.921064 61.923961-61.923961-28.434472-28.344205-61.923962 61.923962-20.942214-21.032482 65.895761-65.805493-28.344204-28.434473-97.128547 97.128547 130.076427 129.986159 99.836592-99.92686-28.344204-28.344204z" p-id="11228" ></path></svg>
