<?xml version="1.0" standalone="no"?><!DOCTYPE svg PUBLIC "-//W3C//DTD SVG 1.1//EN" "http://www.w3.org/Graphics/SVG/1.1/DTD/svg11.dtd"><?xml version="1.0" standalone="no"?><!DOCTYPE svg PUBLIC "-//W3C//DTD SVG 1.1//EN" "http://www.w3.org/Graphics/SVG/1.1/DTD/svg11.dtd"><svg t="1642090482959" class="icon" style="" viewBox="0 0 1024 1024" version="1.1" xmlns="http://www.w3.org/2000/svg" p-id="4948" width="64" height="64" xmlns:xlink="http://www.w3.org/1999/xlink"><defs><style type="text/css"></style></defs><path d="M934.4 222.208H640V80.384a38.4 38.4 0 0 0-38.4-38.4h-512a38.4 38.4 0 0 0-38.4 38.4v863.232a38.4 38.4 0 0 0 38.4 38.4h844.8a38.4 38.4 0 0 0 38.4-38.4V260.608a38.4 38.4 0 0 0-38.4-38.4zM128 118.784H563.2v786.432H463.872v-165.888a38.4 38.4 0 0 0-38.4-38.4H265.728a38.4 38.4 0 0 0-38.4 38.4v165.376H128V118.784z m176.128 786.432v-127.488h82.944v126.976H304.128z m591.872 0h-256V299.008h256v606.208z" p-id="4949"></path><path d="M247.296 451.072h37.888a25.6 25.6 0 1 0 0-51.2h-37.888a25.6 25.6 0 0 0 0 51.2zM247.296 286.208h37.888a25.6 25.6 0 1 0 0-51.2h-37.888a25.6 25.6 0 0 0 0 51.2zM406.016 286.208h37.888a25.6 25.6 0 0 0 0-51.2h-37.888a25.6 25.6 0 0 0 0 51.2zM406.016 451.072h37.888a25.6 25.6 0 1 0 0-51.2h-37.888a25.6 25.6 0 0 0 0 51.2zM247.296 627.712h37.888a25.6 25.6 0 0 0 0-51.2h-37.888a25.6 25.6 0 0 0 0 51.2zM406.016 627.712h37.888a25.6 25.6 0 0 0 0-51.2h-37.888a25.6 25.6 0 0 0 0 51.2zM749.056 457.216h37.888a25.6 25.6 0 0 0 0-51.2h-37.888a25.6 25.6 0 0 0 0 51.2zM749.056 622.08h37.888a25.6 25.6 0 0 0 0-51.2h-37.888a25.6 25.6 0 0 0 0 51.2zM749.056 798.208h37.888a25.6 25.6 0 0 0 0-51.2h-37.888a25.6 25.6 0 0 0 0 51.2z" p-id="4950"></path></svg>
