<svg t="1642215439262" class="icon" viewBox="0 0 1024 1024" version="1.1" xmlns="http://www.w3.org/2000/svg" p-id="4174" width="64" height="64"><path d="M727.798385 824.531461c-125.463063 0-258.785539-42.016708-258.785538-119.903966s133.310495-119.903966 258.785538-119.903966 258.785539 42.016708 258.785539 119.903966-133.358418 119.903966-258.785539 119.903966z m0-190.003697c-127.571686 0-208.945361 41.525494-208.945361 70.099731s81.397637 70.099731 208.969323 70.099731S936.731766 733.225693 936.731766 704.627495s-81.385656-70.099731-208.933381-70.099731zM727.798385 1023.868211c-125.463063 0-258.785539-42.028688-258.785538-119.915947 0-17.56387 7.272353-43.610156 41.932842-67.931204l28.598198 40.734761c-13.346625 9.416918-20.690862 19.061472-20.690863 27.196443 0 28.586217 81.373675 70.08775 208.945361 70.08775s208.93338-41.525494 208.933381-70.111712c0-8.134971-7.368199-17.779525-20.714824-27.1605l28.598198-40.734761c34.648508 24.321048 41.932842 50.31941 41.932842 67.919223-0.011981 77.887259-133.322476 119.915947-258.749597 119.915947z" p-id="4175"></path><path d="M727.798385 926.823634c-125.463063 0-258.785539-42.016708-258.785538-119.903966 0-17.575851 7.272353-43.622136 41.932842-67.943185l28.598198 40.734761c-13.346625 9.428899-20.690862 19.073453-20.690863 27.208424 0 28.574237 81.373675 70.075769 208.945361 70.075769s208.93338-41.525494 208.933381-70.099731c0-8.134971-7.368199-17.779525-20.714824-27.172481l28.598198-40.734761c34.648508 24.321048 41.932842 50.31941 41.932842 67.931204-0.011981 77.887259-133.322476 119.903966-258.749597 119.903966zM645.09484 171.577208h-359.424359a49.87612 49.87612 0 0 1-49.804236-49.804235V49.804235A49.864139 49.864139 0 0 1 285.646519 0h359.42436a49.852159 49.852159 0 0 1 49.792254 49.804235v71.968738a49.864139 49.864139 0 0 1-49.768293 49.804235z m0-49.804235z m-359.424359-71.968738v71.968738h359.340494l0.083865-71.968738zM475.518428 1024H112.116439A74.784228 74.784228 0 0 1 37.416076 949.299637V117.076495a74.784228 74.784228 0 0 1 74.700363-74.700363h51.337779v49.804235H112.116439a24.908108 24.908108 0 0 0-24.896128 24.896128v832.223142a24.920089 24.920089 0 0 0 24.896128 24.896128h363.401989zM893.301322 560.582193h-49.768293V117.076495a24.920089 24.920089 0 0 0-24.896127-24.896128h-57.507898V42.376132h57.507898a74.784228 74.784228 0 0 1 74.700363 74.700363z" p-id="4176"></path><path d="M230.235264 237.974868h347.551375v49.804236H230.235264zM223.741664 432.854756h506.680519v49.804235H223.741664z" p-id="4177"></path></svg>
