<svg t="1642090951551" class="icon" viewBox="0 0 1024 1024" version="1.1" xmlns="http://www.w3.org/2000/svg" p-id="8347" width="64" height="64"><path d="M825.6 951.04h-614.4c-73.4208 0-133.12-59.6992-133.12-133.12v-614.4c0-73.4208 59.6992-133.12 133.12-133.12h614.4c73.4208 0 133.12 59.6992 133.12 133.12v614.4c0 73.4208-59.7504 133.12-133.12 133.12z m-614.4-819.2c-39.5264 0-71.68 32.1536-71.68 71.68v614.4c0 39.5264 32.1536 71.68 71.68 71.68h614.4c39.5264 0 71.68-32.1536 71.68-71.68v-614.4c0-39.5264-32.1536-71.68-71.68-71.68h-614.4z" p-id="8348"></path><path d="M518.4 520.96c-93.184 0-168.96-75.776-168.96-168.96s75.776-168.96 168.96-168.96 168.96 75.776 168.96 168.96-75.8272 168.96-168.96 168.96z m0-276.48c-59.2896 0-107.52 48.2304-107.52 107.52s48.2304 107.52 107.52 107.52 107.52-48.2304 107.52-107.52-48.2304-107.52-107.52-107.52z" p-id="8349"></path><path d="M603.3408 843.52H433.4592c-104.0896 0-188.7232-84.6848-188.7232-188.7232v-55.4496c0-39.2704 15.9232-77.312 43.7248-104.448 24.1664-23.6544 64.3584-56.1152 118.8352-76.5952a30.72 30.72 0 0 1 21.6576 57.4976c-44.4416 16.7424-77.568 43.52-97.536 63.0272-16.0256 15.6672-25.2416 37.7344-25.2416 60.5184v55.4496c0 70.1952 57.088 127.2832 127.2832 127.2832h169.8816c70.1952 0 127.2832-57.088 127.2832-127.2832v-55.4496c0-22.784-9.1648-44.8512-25.1904-60.5184-19.968-19.5584-53.0944-46.336-97.536-63.0784a30.72 30.72 0 0 1 21.6576-57.4976c54.4256 20.48 94.6688 52.992 118.8352 76.6464 27.7504 27.136 43.6736 65.1776 43.6736 104.448v55.4496c0 104.0896-84.6848 188.7232-188.7232 188.7232z" p-id="8350"></path><path d="M518.4 720.64c-46.2848 0-83.9168-32.8192-83.9168-73.1136V645.12l0.3584-2.3552c0.256-1.5872 6.2976-39.8848 16.128-78.848 15.0528-59.5968 32.3072-99.2768 67.3792-99.2768s52.3264 39.68 67.3792 99.2768c9.8816 38.9632 15.9232 77.2608 16.128 78.848l0.3584 2.3552v2.4064c0.1024 40.3456-37.5808 73.1136-83.8144 73.1136zM496.128 648.704c1.3824 4.2496 9.5744 10.496 22.272 10.496s20.8896-6.2976 22.272-10.496c-5.8368-35.9936-14.336-72.4992-22.272-97.3824-7.936 24.8832-16.4864 61.3888-22.272 97.3824z" p-id="8351"></path></svg>
