<svg t="1642091384282" class="icon" viewBox="0 0 1024 1024" version="1.1" xmlns="http://www.w3.org/2000/svg" p-id="14597" width="64" height="64"><path d="M512 0C229.23 0 0 229.23 0 512c0 282.771 229.23 512 512 512s512-229.229 512-512C1024 229.23 794.77 0 512 0z m327.467 704.089c-4.254 7.237-13.554 9.655-20.765 5.405-7.237-4.254-9.655-13.554-5.401-20.79 31.354-53.347 47.941-114.461 47.941-176.717 0-47.145-9.235-92.899-27.444-135.946-17.59-41.578-42.769-78.93-74.846-111.008-32.074-32.074-69.416-57.267-111.004-74.856-43.047-18.206-88.776-27.43-135.946-27.43-47.16 0-92.904 9.224-135.961 27.444-41.578 17.586-78.93 42.779-111.008 74.857-32.074 32.074-57.255 69.426-74.842 111.007-18.22 43.043-27.444 88.787-27.444 135.946 0 47.155 9.235 92.899 27.455 135.946 17.591 41.588 42.769 78.93 74.846 111.019 32.074 32.074 69.426 57.256 111.007 74.842 43.042 18.224 88.787 27.448 135.947 27.448 87.443 0 171.108-32.483 235.589-91.434 6.187-5.644 15.791-5.213 21.435 0.963 5.644 6.188 5.224 15.776-0.948 21.431-70.1 64.091-161.026 99.38-256.076 99.38-51.247 0-100.962-10.035-147.767-29.837-45.212-19.118-85.8-46.486-120.647-81.347-34.862-34.849-62.23-75.452-81.349-120.648-19.801-46.805-29.836-96.52-29.836-147.763 0-51.246 10.035-100.961 29.836-147.766 19.119-45.212 46.486-85.8 81.349-120.662 34.847-34.858 75.436-62.227 120.647-81.347 46.804-19.788 96.52-29.823 147.767-29.823 51.242 0 100.958 10.035 147.762 29.823 45.211 19.132 85.8 46.489 120.662 81.347 34.847 34.873 62.215 75.45 81.333 120.662 19.791 46.805 29.837 96.52 29.837 147.766 0.001 67.657-18.032 134.098-52.129 192.088z m-327.455-41.754c19.665 0 35.593 15.928 35.593 35.594-0.011 19.66-15.929 35.617-35.593 35.617-19.689 0-35.607-15.957-35.607-35.617 0-19.651 15.932-35.594 35.607-35.594z m-28.305-90.952V333.679c0-23.879 12.667-43.209 28.296-43.209 15.613 0 28.291 19.331 28.291 43.209v237.715c0 23.864-12.678 43.199-28.291 43.199-15.63 0-28.296-19.335-28.296-43.21z" p-id="14598" ></path></svg>
