<?xml version="1.0" standalone="no"?><!DOCTYPE svg PUBLIC "-//W3C//DTD SVG 1.1//EN" "http://www.w3.org/Graphics/SVG/1.1/DTD/svg11.dtd"><svg t="1642090735221" class="icon" viewBox="0 0 1024 1024" version="1.1" xmlns="http://www.w3.org/2000/svg" p-id="5383" width="64" height="64"><path d="M517.632 476.672c-4.096 0-8.704-1.024-12.8-2.56-36.352-16.384-72.704-41.984-103.936-73.216-24.064-24.064-44.032-50.176-59.904-77.824-46.08-80.384-46.592-158.208-2.048-202.752C381.44 77.824 455.68 76.8 532.48 117.76c14.848 8.192 20.48 26.624 12.8 41.472-7.68 14.848-26.624 20.48-41.472 12.8-51.2-27.136-98.816-30.208-121.344-8.192C358.4 186.88 363.52 238.592 394.24 292.352c13.312 23.04 30.208 45.056 50.176 65.024 26.112 26.112 55.808 47.616 86.016 60.928 15.36 7.168 22.528 25.088 15.36 40.448-5.632 11.264-16.384 17.92-28.16 17.92z"  p-id="5384"></path><path d="M517.632 476.672c-11.776 0-23.04-6.656-28.16-17.92-7.168-15.36 0-33.792 15.36-40.448 30.208-13.312 59.904-34.816 86.528-60.928 19.456-19.456 35.84-40.448 48.64-62.464l1.536-2.56c30.72-53.76 35.84-105.472 12.288-128.512-22.528-22.528-70.144-18.944-121.856 8.192-14.848 8.192-33.792 2.048-41.472-12.8-8.192-14.848-2.048-33.792 12.8-41.472 77.312-40.96 151.552-39.936 194.048 2.56 43.52 43.008 43.52 117.76 1.536 195.584l-4.096 7.168c-15.872 27.648-35.84 53.76-59.904 77.824-31.744 31.744-67.584 57.344-104.448 73.728-4.608 1.536-8.704 2.048-12.8 2.048z"  p-id="5385"></path><path d="M517.632 707.584c-13.824 0-26.112-9.216-29.696-23.04 0-0.512-8.192-27.648-40.448-45.568-43.52-23.552-147.456-86.528-161.28-94.72-6.144-2.56-14.848-4.608-18.944-4.096-1.024 1.536-2.56 7.168-1.536 19.968 1.024 16.896-11.776 31.744-28.672 32.768-16.896 1.024-31.744-11.776-32.768-28.672-2.56-44.032 13.824-65.024 28.672-74.752 33.28-22.016 76.288-2.048 81.408 0.512l2.048 1.024c1.024 0.512 116.224 69.632 160.768 94.208 55.808 30.72 69.12 78.848 70.656 84.48 4.096 16.384-5.632 33.28-22.016 37.376-3.072 0-5.632 0.512-8.192 0.512z"  p-id="5386"></path><path d="M376.32 942.08c-10.752 0-21.504-6.144-27.136-16.384-46.592-88.064-107.008-134.144-107.52-134.656-146.944-114.176-162.304-186.368-163.328-194.56 0-1.536-0.512-3.072-0.512-4.608v-184.32c0-38.912 4.096-92.16 41.472-106.496 25.6-10.24 52.224 5.12 67.072 20.992 3.584 4.096 6.144 8.704 7.68 14.336 0.512 1.536 30.208 132.608 53.76 189.44 18.432 43.52 83.968 103.424 107.52 122.88 13.312 10.752 14.848 30.208 4.096 43.008-10.752 13.312-30.208 14.848-43.008 4.096-9.728-8.192-97.792-81.408-124.928-146.432-18.944-45.056-39.936-128-50.688-171.52-1.024 7.68-1.536 17.408-1.536 29.696v180.736c3.584 10.752 26.112 66.56 139.776 154.112 2.56 2.048 71.168 54.784 124.416 154.624 8.192 14.848 2.56 33.792-12.8 41.472-4.608 2.56-9.216 3.584-14.336 3.584zM517.632 872.448c-16.896 0-30.72-13.824-30.72-30.72v-168.448l1.024-3.584c1.536-5.632 14.848-53.76 70.656-84.48 44.544-24.576 159.232-93.696 160.768-94.208l2.048-1.024c4.608-2.56 48.128-22.528 81.408-0.512 14.848 9.728 31.232 30.72 28.672 74.752-1.024 16.896-15.872 29.696-32.768 28.672-16.896-1.024-29.696-15.872-28.672-32.768 1.024-12.288-1.024-17.92-1.536-19.968-3.584-0.512-12.288 1.024-18.944 4.096-13.824 8.192-117.76 70.656-161.28 94.72-26.624 14.336-36.864 35.328-39.424 43.008v159.744c-0.512 16.896-14.336 30.72-31.232 30.72z"  p-id="5387"></path><path d="M658.944 942.08c-5.12 0-9.728-1.024-14.336-3.584-14.848-8.192-20.48-26.624-12.8-41.472 53.248-99.84 121.856-152.576 124.928-154.624 114.176-88.576 136.704-144.896 139.264-153.6V407.552c0-12.8-0.512-22.528-1.536-29.696-10.24 43.52-31.744 126.464-50.688 171.52-27.648 65.024-115.2 138.24-124.928 146.432-13.312 10.752-32.256 8.704-43.008-4.096-10.752-13.312-8.704-32.256 4.096-43.008 23.552-19.456 89.088-79.872 107.52-122.88 24.064-56.832 53.76-187.904 53.76-189.44 1.024-5.12 3.584-10.24 7.68-14.336 14.848-15.872 41.472-31.232 67.072-20.992 37.376 14.848 41.472 68.096 41.472 106.496v184.832c0 1.536 0 3.072-0.512 4.608-1.024 7.68-16.384 80.384-162.816 194.048-1.024 0.512-61.44 47.616-108.032 134.656-5.12 10.24-15.872 16.384-27.136 16.384z" p-id="5388"></path></svg>

