<svg t="1642215225550" class="icon" viewBox="0 0 1024 1024" version="1.1" xmlns="http://www.w3.org/2000/svg" p-id="2204" width="64" height="64"><path d="M971.733333 417.493333a463.573333 463.573333 0 0 0-27.306666-88.106666 458.24 458.24 0 0 0-42.666667-79.786667 42.666667 42.666667 0 1 0-70.613333 47.786667 374.613333 374.613333 0 0 1 57.6 137.173333 384 384 0 0 1 0 154.88 374.613333 374.613333 0 0 1-57.6 137.173333A386.773333 386.773333 0 0 1 661.333333 865.92a387.84 387.84 0 0 1-226.986666 21.333333 379.306667 379.306667 0 0 1-71.893334-21.333333 393.6 393.6 0 0 1-65.28-35.413333 384 384 0 0 1-103.893333-103.893334 374.613333 374.613333 0 0 1-57.6-137.173333 384 384 0 0 1 0-154.88 374.613333 374.613333 0 0 1 57.6-137.173333A386.773333 386.773333 0 0 1 362.666667 158.08a387.84 387.84 0 0 1 226.986666-21.333333 379.306667 379.306667 0 0 1 71.893334 21.333333 393.6 393.6 0 0 1 65.28 35.413333 42.666667 42.666667 0 1 0 47.573333-70.613333 450.56 450.56 0 0 0-79.786667-42.666667 463.573333 463.573333 0 0 0-88.106666-27.306666 469.333333 469.333333 0 0 0-189.013334 0 463.573333 463.573333 0 0 0-88.106666 27.306666 450.56 450.56 0 0 0-79.786667 42.666667 463.146667 463.146667 0 0 0-126.72 126.72 458.24 458.24 0 0 0-42.666667 79.786667 469.333333 469.333333 0 0 0 0 365.226666 458.24 458.24 0 0 0 42.666667 79.786667 463.146667 463.146667 0 0 0 126.72 126.72 450.56 450.56 0 0 0 79.786667 42.666667 469.333333 469.333333 0 0 0 365.226666 0 450.56 450.56 0 0 0 79.786667-42.666667 463.146667 463.146667 0 0 0 126.72-126.72 458.24 458.24 0 0 0 42.666667-79.786667 469.333333 469.333333 0 0 0 27.306666-277.333333z" p-id="2205"></path><path d="M661.333333 490.666667a42.666667 42.666667 0 0 0 0-85.333334h-96.213333l97.706667-97.92a42.666667 42.666667 0 1 0-60.373334-60.16L512 337.706667l-90.453333-90.453334a42.666667 42.666667 0 1 0-60.373334 60.16L458.88 405.333333H362.666667a42.666667 42.666667 0 0 0 0 85.333334h106.666666v85.333333h-106.666666a42.666667 42.666667 0 0 0 0 85.333333h106.666666v106.666667a42.666667 42.666667 0 0 0 85.333334 0v-106.666667h106.666666a42.666667 42.666667 0 0 0 0-85.333333h-106.666666v-85.333333z" p-id="2206"></path></svg>
