<svg t="1642091149649" class="icon" viewBox="0 0 1024 1024" version="1.1" xmlns="http://www.w3.org/2000/svg" p-id="9984" width="64" height="64"><path d="M552.362667 101.034667l406.954666 373.034666a34.133333 34.133333 0 0 1-23.04 59.306667L896 533.333333v298.666667a85.333333 85.333333 0 0 1-85.333333 85.333333H213.333333a85.333333 85.333333 0 0 1-85.333333-85.333333v-298.666667h-40.234667a34.133333 34.133333 0 0 1-23.04-59.264l406.912-373.034666a59.733333 59.733333 0 0 1 80.725334 0zM400.896 614.826667a34.901333 34.901333 0 0 0-49.237333 3.541333l-6.357334 7.978667a129.834667 129.834667 0 0 0-25.301333 77.056v46.677333c0 26.453333 21.504 48 48 48h288c26.496 0 48-21.504 48-48v-46.677333c0-30.549333-10.666667-59.349333-29.184-82.005334l-1.92-2.176-2.048-2.048a38.442667 38.442667 0 0 0-54.357333 2.688l-2.389334 2.602667a80.085333 80.085333 0 0 1-5.504 5.674667 152.96 152.96 0 0 1-96.597333 34.176 152.874667 152.874667 0 0 1-111.104-47.488zM512 353.194667a115.2 115.2 0 0 0-115.2 115.2v40.32a115.2 115.2 0 0 0 230.4 0v-40.32a115.2 115.2 0 0 0-115.2-115.2z" p-id="9985"></path></svg>
