<svg t="1642091309319" class="icon" viewBox="0 0 1024 1024" version="1.1" xmlns="http://www.w3.org/2000/svg" p-id="13653" width="64" height="64"><path d="M464.257692 928.830477c-30.464081-27.469632-62.710836-56.138578-96.757662-86.001723-34.040686-29.858028-65.694922-57.332776-94.963731-82.415035-34.040686-28.667923-68.082396-57.034994-102.129222-85.104283-6.569902 0.595564-13.139803 0.89744-19.705611 0.89744-5.376676 0.594541-11.050124 0.892323-17.026483 0.892323l-15.226412 0c-16.129006 0-29.264716-4.925173-39.417363-14.780635-10.15367-9.855462-15.232552-21.648043-15.232552-35.383882L63.798656 401.183102l0.897477 0-0.897477-0.89744c0-16.72287 5.227267-30.457686 15.677709-41.209564 10.450442-10.747785 23.442882-16.123212 38.972206-16.123212l51.062053 0c54.947709-46.586015 104.819607-88.390119 149.613646-125.417431 19.111045-16.124236 37.925319-31.801287 56.437706-47.031153 18.517503-15.231913 35.240051-29.115108 50.169692-41.656749 14.934757-12.540617 27.475901-22.994714 37.628548-31.354102 10.152647-8.362458 16.421684-13.438057 18.814274-15.230889 17.91782-13.141298 32.400257-19.111267 43.445265-17.917068 11.051147 1.194198 19.711751 6.569626 25.984882 16.127306 6.268014 9.552563 10.597804 21.197788 12.987324 34.936697 2.388497 13.735839 3.582745 26.276457 3.582745 37.622876l0 725.628472c0 11.347442-2.086609 23.441898-6.268014 36.283368-4.182428 12.8384-10.603944 22.991644-19.260454 30.458709-8.661627 7.467065-19.562342 10.597359-32.704192 9.404184C496.807359 953.614953 481.57583 944.957783 464.257692 928.830477zM753.623991 396.704091c12.541144 17.316387 22.545405 34.787294 30.012784 52.40658 7.462262 17.615193 11.19851 38.97057 11.19851 64.052828 0 23.887037-3.884633 45.3867-11.649807 64.501036-7.76415 19.111267-17.614909 36.428677-29.561487 51.957349-4.776994 6.569626-9.855876 12.391215-15.232552 17.469883-5.370536 5.073552-12.243349 7.611352-20.603088 7.611352-10.75233 0-19.859114-3.880377-27.322399-11.643178-7.467379-7.764847-11.19851-17.020652-11.19851-27.77253 0-4.776793 0.891337-9.552563 2.685268-14.334473l-0.897477 0c2.98818-6.569626 6.569902-12.8384 10.75233-18.809391 4.181405-5.975085 8.21033-12.094456 12.094964-18.367323 3.879517-6.268774 7.164467-13.438057 9.849736-21.49864 2.691408-8.06263 4.034042-17.768689 4.034042-29.115108 0-10.751878-1.342634-20.156062-4.034042-28.218692-2.685268-8.061606-5.971242-15.379269-9.849736-21.948895-3.884633-6.569626-7.913559-12.8384-12.094964-18.813484-4.182428-5.970992-7.467379-12.243859-9.855876-18.809391-1.793931-4.181229-2.685268-8.958022-2.685268-14.334473 0-10.750855 3.731131-20.007683 11.19851-27.770484 7.462262-7.764847 16.569046-11.645225 27.322399-11.645225 8.359739 0 15.232552 2.537799 20.603088 7.611352C743.768115 384.310829 748.846997 390.133442 753.623991 396.704091zM803.793683 798.934035c-7.170607 5.376451-15.529323 8.061606-25.087404 8.061606-11.942485 0-22.243517-4.330632-30.904121-12.987802-8.661627-8.66024-12.992441-18.961864-12.992441-30.90794 0-13.140275 5.078882-24.185842 15.232552-33.143864 0.594566-0.598634 1.193225-1.044796 1.788814-1.346671 0.600706-0.297782 1.195272-0.743944 1.793931-1.342578l0.897477-0.89744c16.722548-11.346419 32.252895-24.784476 46.58183-40.313148 14.335075-15.528672 26.876219-32.399921 37.628548-50.613748 10.75233-18.21485 19.111045-37.622876 25.082288-58.229193 5.975336-20.603247 8.958398-41.953508 8.958398-64.050782 0-44.792159-11.345872-85.704964-34.040686-122.732276s-51.067169-67.48602-85.107855-91.373057c-12.541144-8.958022-18.814274-20.904099-18.814274-35.833113 0-11.946077 4.330814-22.246677 12.992441-30.90794 8.660604-8.661264 18.96266-12.987802 30.904121-12.987802 10.15367 0 19.112069 3.28072 26.876219 9.850345 22.100248 15.528672 42.70743 33.594119 61.819499 54.200436 19.111045 20.603247 35.532729 42.999326 49.273238 67.188238 13.735392 24.185842 24.483628 50.015114 32.246755 77.489862 7.765173 27.469632 11.649807 55.840796 11.649807 85.104283 0 29.863145-3.884633 58.525951-11.649807 86.0007-7.76415 27.470655-18.660772 53.449329-32.698052 77.936023-14.033187 24.486694-30.60735 47.031153-49.718395 67.638493C847.39245 765.339916 826.487474 783.406386 803.793683 798.934035z" p-id="13654" ></path></svg>
