<svg t="1642234774081" class="icon" viewBox="0 0 1024 1024" version="1.1" xmlns="http://www.w3.org/2000/svg" p-id="2846" width="64" height="64"><path d="M908.42 460.87H563.13V115.58c0-28.24-22.89-51.13-51.13-51.13C265.22 64.44 64.45 265.22 64.45 512S265.22 959.56 512 959.56 959.55 758.78 959.55 512c0-28.24-22.89-51.13-51.13-51.13zM512 857.29c-190.39 0-345.29-154.9-345.29-345.29 0-173.02 127.93-316.73 294.16-341.51V512c0 28.24 22.89 51.13 51.13 51.13h341.51C828.73 729.36 685.02 857.29 512 857.29z" p-id="2847"></path><path d="M647.33 428.03H907.9c28.24 0 51.13-22.89 51.13-51.13 0-171.88-139.83-311.71-311.71-311.71-28.24 0-51.13 22.89-51.13 51.13V376.9c0 28.24 22.89 51.13 51.14 51.13z m203.09-102.26H698.46v-152c74.48 18.75 133.2 77.52 151.96 152z" p-id="2848"></path></svg>
