<?xml version="1.0" standalone="no"?><!DOCTYPE svg PUBLIC "-//W3C//DTD SVG 1.1//EN" "http://www.w3.org/Graphics/SVG/1.1/DTD/svg11.dtd"><svg t="1639147867669" class="icon" viewBox="0 0 1024 1024" version="1.1" xmlns="http://www.w3.org/2000/svg" p-id="5291" width="64" height="64" xmlns:xlink="http://www.w3.org/1999/xlink"><defs><style type="text/css"></style></defs><path d="M348.8 96c-6.4 3.2-9.6 3.2-16 6.4-163.2 70.4-272 230.4-272 412.8 0 246.4 201.6 448 448 448 182.4 0 345.6-112 416-278.4 0-3.2 3.2-6.4 3.2-6.4 6.4-16-3.2-35.2-19.2-41.6s-35.2 3.2-41.6 19.2c0 3.2-3.2 3.2-3.2 6.4-57.6 144-198.4 236.8-355.2 236.8-211.2 0-384-172.8-384-384 0-153.6 92.8-291.2 230.4-352 3.2-3.2 6.4-3.2 12.8-6.4 16-6.4 25.6-25.6 19.2-41.6-3.2-19.2-22.4-25.6-38.4-19.2z m195.2 384h352c-16-185.6-163.2-336-352-352v352z m-32-416c246.4 0 448 201.6 448 448 0 19.2-12.8 32-32 32h-416c-19.2 0-32-12.8-32-32v-416c0-19.2 12.8-32 32-32z" p-id="5292" fill="#2c2c2c"></path></svg>